<mxfile host="app.diagrams.net" modified="2024-06-03T01:06:20.172Z" agent="Mozilla/5.0 (Macintosh; Intel Mac OS X 10.15; rv:126.0) Gecko/20100101 Firefox/126.0" etag="segubsvCE6jyX-Rpqv8C" version="24.4.9" type="device">
  <diagram name="Page-1" id="coMQfGvSABU-2rrnZBkZ">
    <mxGraphModel dx="1468" dy="860" grid="1" gridSize="10" guides="1" tooltips="1" connect="1" arrows="1" fold="1" page="1" pageScale="1" pageWidth="850" pageHeight="1100" math="0" shadow="0">
      <root>
        <mxCell id="0" />
        <mxCell id="1" parent="0" />
        <mxCell id="4wbgwz5JlUQQpl5mYyca-1" value="&lt;div&gt;&amp;lt;&amp;lt;interface&amp;gt;&amp;gt;&lt;br&gt;&lt;/div&gt;&lt;div&gt;WeatherData&lt;/div&gt;" style="swimlane;fontStyle=1;align=center;verticalAlign=top;childLayout=stackLayout;horizontal=1;startSize=40;horizontalStack=0;resizeParent=1;resizeParentMax=0;resizeLast=0;collapsible=1;marginBottom=0;whiteSpace=wrap;html=1;" vertex="1" parent="1">
          <mxGeometry x="360" y="50" width="170" height="190" as="geometry" />
        </mxCell>
        <mxCell id="4wbgwz5JlUQQpl5mYyca-3" value="" style="line;strokeWidth=1;fillColor=none;align=left;verticalAlign=middle;spacingTop=-1;spacingLeft=3;spacingRight=3;rotatable=0;labelPosition=right;points=[];portConstraint=eastwest;strokeColor=inherit;" vertex="1" parent="4wbgwz5JlUQQpl5mYyca-1">
          <mxGeometry y="40" width="170" height="8" as="geometry" />
        </mxCell>
        <mxCell id="4wbgwz5JlUQQpl5mYyca-4" value="&lt;div&gt;+ getTemperatura(): Real&lt;/div&gt;&lt;div&gt;&lt;br&gt;&lt;/div&gt;&lt;div&gt;+ getPresion(): Real&lt;/div&gt;&lt;div&gt;&lt;br&gt;&lt;/div&gt;&lt;div&gt;+ getRadiacionSolar(): Real&lt;/div&gt;&lt;div&gt;&lt;br&gt;&lt;/div&gt;&lt;div&gt;+ getTemperaturas(): Real [*]&lt;br&gt;&lt;/div&gt;&lt;div&gt;&lt;br&gt;&lt;/div&gt;&lt;div&gt;+ displayData(): String&lt;br&gt;&lt;/div&gt;" style="text;strokeColor=none;fillColor=none;align=left;verticalAlign=top;spacingLeft=4;spacingRight=4;overflow=hidden;rotatable=0;points=[[0,0.5],[1,0.5]];portConstraint=eastwest;whiteSpace=wrap;html=1;" vertex="1" parent="4wbgwz5JlUQQpl5mYyca-1">
          <mxGeometry y="48" width="170" height="142" as="geometry" />
        </mxCell>
        <mxCell id="4wbgwz5JlUQQpl5mYyca-9" value="HomeWeatherStation" style="swimlane;fontStyle=1;align=center;verticalAlign=top;childLayout=stackLayout;horizontal=1;startSize=26;horizontalStack=0;resizeParent=1;resizeParentMax=0;resizeLast=0;collapsible=1;marginBottom=0;whiteSpace=wrap;html=1;" vertex="1" parent="1">
          <mxGeometry x="10" y="400" width="370" height="240" as="geometry" />
        </mxCell>
        <mxCell id="4wbgwz5JlUQQpl5mYyca-10" value="- temperaturas: Real[*]" style="text;strokeColor=none;fillColor=none;align=left;verticalAlign=top;spacingLeft=4;spacingRight=4;overflow=hidden;rotatable=0;points=[[0,0.5],[1,0.5]];portConstraint=eastwest;whiteSpace=wrap;html=1;" vertex="1" parent="4wbgwz5JlUQQpl5mYyca-9">
          <mxGeometry y="26" width="370" height="26" as="geometry" />
        </mxCell>
        <mxCell id="4wbgwz5JlUQQpl5mYyca-11" value="" style="line;strokeWidth=1;fillColor=none;align=left;verticalAlign=middle;spacingTop=-1;spacingLeft=3;spacingRight=3;rotatable=0;labelPosition=right;points=[];portConstraint=eastwest;strokeColor=inherit;" vertex="1" parent="4wbgwz5JlUQQpl5mYyca-9">
          <mxGeometry y="52" width="370" height="8" as="geometry" />
        </mxCell>
        <mxCell id="4wbgwz5JlUQQpl5mYyca-12" value="&lt;div&gt;+ &amp;lt;&amp;lt;create&amp;gt;&amp;gt; createHomeWeatherStation(): HomeWeatherStation&lt;/div&gt;&lt;div&gt;&lt;div&gt;&lt;br&gt;&lt;/div&gt;&lt;div&gt;+ getTemperatura(): Real&lt;/div&gt;&lt;div&gt;&lt;br&gt;&lt;/div&gt;&lt;div&gt;+ getPresion(): Real&lt;/div&gt;&lt;div&gt;&lt;br&gt;&lt;/div&gt;&lt;div&gt;+ getRadiacionSolar(): Real&lt;/div&gt;&lt;div&gt;&lt;br&gt;&lt;/div&gt;&lt;div&gt;+ getTemperaturas(): Real [*]&lt;br&gt;&lt;/div&gt;&lt;div&gt;&lt;br&gt;&lt;/div&gt;&lt;div&gt;+ displayData(): String&lt;br&gt;&lt;/div&gt;&lt;/div&gt;" style="text;strokeColor=none;fillColor=none;align=left;verticalAlign=top;spacingLeft=4;spacingRight=4;overflow=hidden;rotatable=0;points=[[0,0.5],[1,0.5]];portConstraint=eastwest;whiteSpace=wrap;html=1;" vertex="1" parent="4wbgwz5JlUQQpl5mYyca-9">
          <mxGeometry y="60" width="370" height="180" as="geometry" />
        </mxCell>
        <mxCell id="4wbgwz5JlUQQpl5mYyca-13" value="" style="endArrow=block;dashed=1;endFill=0;endSize=12;html=1;rounded=0;exitX=0.5;exitY=0;exitDx=0;exitDy=0;entryX=0.25;entryY=1;entryDx=0;entryDy=0;" edge="1" parent="1" source="4wbgwz5JlUQQpl5mYyca-9" target="4wbgwz5JlUQQpl5mYyca-1">
          <mxGeometry width="160" relative="1" as="geometry">
            <mxPoint x="340" y="380" as="sourcePoint" />
            <mxPoint x="370" y="280" as="targetPoint" />
          </mxGeometry>
        </mxCell>
        <mxCell id="4wbgwz5JlUQQpl5mYyca-14" value="&lt;div&gt;&amp;lt;&amp;lt;abstract&amp;gt;&amp;gt;&lt;br&gt;&lt;/div&gt;&lt;div&gt;HomeWeatherStationDecorator&lt;/div&gt;" style="swimlane;fontStyle=1;align=center;verticalAlign=top;childLayout=stackLayout;horizontal=1;startSize=40;horizontalStack=0;resizeParent=1;resizeParentMax=0;resizeLast=0;collapsible=1;marginBottom=0;whiteSpace=wrap;html=1;" vertex="1" parent="1">
          <mxGeometry x="580" y="630" width="710" height="164" as="geometry" />
        </mxCell>
        <mxCell id="4wbgwz5JlUQQpl5mYyca-16" value="" style="line;strokeWidth=1;fillColor=none;align=left;verticalAlign=middle;spacingTop=-1;spacingLeft=3;spacingRight=3;rotatable=0;labelPosition=right;points=[];portConstraint=eastwest;strokeColor=inherit;" vertex="1" parent="4wbgwz5JlUQQpl5mYyca-14">
          <mxGeometry y="40" width="710" height="8" as="geometry" />
        </mxCell>
        <mxCell id="4wbgwz5JlUQQpl5mYyca-17" value="&lt;div&gt;# &amp;lt;&amp;lt;create&amp;gt;&amp;gt; createHomeWeatherStationDecorator(homeWeatherStation: HomeWeatherStation): HomeWeatherStationDecorator&lt;/div&gt;&lt;div&gt;&lt;br&gt;&lt;/div&gt;&lt;div&gt;+ getTemperatura(): Real&lt;/div&gt;&lt;div&gt;&lt;br&gt;&lt;/div&gt;&lt;div&gt;+ getPresion(): Real&lt;/div&gt;&lt;div&gt;&lt;br&gt;&lt;/div&gt;&lt;div&gt;+ getRadiacionSolar(): Real&lt;/div&gt;&lt;div&gt;&lt;br&gt;&lt;/div&gt;&lt;div&gt;+ getTemperaturas(): Real [*]&lt;br&gt;&lt;/div&gt;" style="text;strokeColor=none;fillColor=none;align=left;verticalAlign=top;spacingLeft=4;spacingRight=4;overflow=hidden;rotatable=0;points=[[0,0.5],[1,0.5]];portConstraint=eastwest;whiteSpace=wrap;html=1;" vertex="1" parent="4wbgwz5JlUQQpl5mYyca-14">
          <mxGeometry y="48" width="710" height="116" as="geometry" />
        </mxCell>
        <mxCell id="4wbgwz5JlUQQpl5mYyca-20" value="" style="endArrow=block;dashed=1;endFill=0;endSize=12;html=1;rounded=0;exitX=0.5;exitY=0;exitDx=0;exitDy=0;entryX=0.75;entryY=1;entryDx=0;entryDy=0;" edge="1" parent="1" source="4wbgwz5JlUQQpl5mYyca-14" target="4wbgwz5JlUQQpl5mYyca-1">
          <mxGeometry width="160" relative="1" as="geometry">
            <mxPoint x="570" y="310" as="sourcePoint" />
            <mxPoint x="730" y="310" as="targetPoint" />
          </mxGeometry>
        </mxCell>
        <mxCell id="4wbgwz5JlUQQpl5mYyca-21" style="edgeStyle=orthogonalEdgeStyle;rounded=0;orthogonalLoop=1;jettySize=auto;html=1;exitX=0;exitY=0.5;exitDx=0;exitDy=0;entryX=1;entryY=0.5;entryDx=0;entryDy=0;" edge="1" parent="1" source="4wbgwz5JlUQQpl5mYyca-17" target="4wbgwz5JlUQQpl5mYyca-12">
          <mxGeometry relative="1" as="geometry" />
        </mxCell>
        <mxCell id="4wbgwz5JlUQQpl5mYyca-22" value="homeWeatherStation" style="edgeLabel;html=1;align=center;verticalAlign=middle;resizable=0;points=[];" vertex="1" connectable="0" parent="4wbgwz5JlUQQpl5mYyca-21">
          <mxGeometry x="0.005" relative="1" as="geometry">
            <mxPoint as="offset" />
          </mxGeometry>
        </mxCell>
        <mxCell id="4wbgwz5JlUQQpl5mYyca-23" value="HomeWeatherCelsiusStation" style="swimlane;fontStyle=1;align=center;verticalAlign=top;childLayout=stackLayout;horizontal=1;startSize=26;horizontalStack=0;resizeParent=1;resizeParentMax=0;resizeLast=0;collapsible=1;marginBottom=0;whiteSpace=wrap;html=1;" vertex="1" parent="1">
          <mxGeometry x="280" y="920" width="680" height="150" as="geometry" />
        </mxCell>
        <mxCell id="4wbgwz5JlUQQpl5mYyca-24" value="+ field: type" style="text;strokeColor=none;fillColor=none;align=left;verticalAlign=top;spacingLeft=4;spacingRight=4;overflow=hidden;rotatable=0;points=[[0,0.5],[1,0.5]];portConstraint=eastwest;whiteSpace=wrap;html=1;" vertex="1" parent="4wbgwz5JlUQQpl5mYyca-23">
          <mxGeometry y="26" width="680" height="26" as="geometry" />
        </mxCell>
        <mxCell id="4wbgwz5JlUQQpl5mYyca-25" value="" style="line;strokeWidth=1;fillColor=none;align=left;verticalAlign=middle;spacingTop=-1;spacingLeft=3;spacingRight=3;rotatable=0;labelPosition=right;points=[];portConstraint=eastwest;strokeColor=inherit;" vertex="1" parent="4wbgwz5JlUQQpl5mYyca-23">
          <mxGeometry y="52" width="680" height="8" as="geometry" />
        </mxCell>
        <mxCell id="4wbgwz5JlUQQpl5mYyca-26" value="&lt;div&gt;+ &amp;lt;&amp;lt;create&amp;gt;&amp;gt; createHomeWeatherCelsiusStation(homeWeatherStation: HomeWeatherStation): HomeWeatherCelsiusStation&lt;/div&gt;&lt;div&gt;&lt;br&gt;&lt;/div&gt;&lt;div&gt;+ displayData(): String&lt;/div&gt;&lt;div&gt;&lt;br&gt;&lt;/div&gt;&lt;div&gt;+ getTemperatura(): Real&lt;br&gt;&lt;/div&gt;" style="text;strokeColor=none;fillColor=none;align=left;verticalAlign=top;spacingLeft=4;spacingRight=4;overflow=hidden;rotatable=0;points=[[0,0.5],[1,0.5]];portConstraint=eastwest;whiteSpace=wrap;html=1;" vertex="1" parent="4wbgwz5JlUQQpl5mYyca-23">
          <mxGeometry y="60" width="680" height="90" as="geometry" />
        </mxCell>
        <mxCell id="4wbgwz5JlUQQpl5mYyca-27" value="Extends" style="endArrow=block;endSize=16;endFill=0;html=1;rounded=0;exitX=0.5;exitY=0;exitDx=0;exitDy=0;entryX=0.5;entryY=1;entryDx=0;entryDy=0;" edge="1" parent="1" source="4wbgwz5JlUQQpl5mYyca-23" target="4wbgwz5JlUQQpl5mYyca-14">
          <mxGeometry width="160" relative="1" as="geometry">
            <mxPoint x="710" y="700" as="sourcePoint" />
            <mxPoint x="870" y="700" as="targetPoint" />
          </mxGeometry>
        </mxCell>
      </root>
    </mxGraphModel>
  </diagram>
</mxfile>
